<svg
  xmlns="http://www.w3.org/2000/svg"
  viewBox="0 0 24 24"
  fill="white"
>
  <rect
    x="0"
    y="0"
    width="24"
    height="24"
    rx="4"
    ry="4"
    fill="url(#grad)"
  />
  <defs>
    <linearGradient id="grad" x1="0%" y1="0%" x2="100%" y2="100%">
      <stop offset="0%" stop-color="#818cf8" /> <!-- indigo-400 -->
      <stop offset="100%" stop-color="#4f46e5" /> <!-- indigo-600 -->
    </linearGradient>
  </defs>
  <path d="M9 11a4 4 0 100-8 4 4 0 000 8zM15 13c-1.306 0-2.418.835-2.83 2H8.83c-.412-1.165-1.524-2-2.83-2C3.347 13 2 14.343 2 16v2h12v-2c0-1.657-1.343-3-3-3zM17 11a3 3 0 100-6 3 3 0 000 6zm-1 2c-1.104 0-2 .896-2 2v3h6v-3c0-1.104-.896-2-2-2h-2z"/>
</svg>
